<svg width="24" height="24" viewBox="0 0 24 24" fill="none" xmlns="http://www.w3.org/2000/svg">
<path d="M11.765 1H12.2363C13.0725 1.02449 13.9082 1.12805 14.7178 1.34074C15.0598 1.4327 15.2669 1.8366 15.1393 2.16789C15.0309 2.44063 14.9178 2.71172 14.8047 2.98271C14.7451 3.12542 14.6855 3.26809 14.6267 3.41098C14.5163 3.69242 14.191 3.86473 13.8962 3.79297C12.6763 3.51324 11.3941 3.50422 10.1725 3.77879C9.86274 3.87977 9.49235 3.71992 9.37332 3.4127C9.31423 3.26912 9.25457 3.1258 9.19492 2.98248C9.08201 2.71124 8.96888 2.43947 8.85985 2.1666C8.73223 1.83531 8.94321 1.42625 9.28739 1.33902C10.0961 1.12891 10.9301 1.0232 11.765 1Z" fill="black"/>
<path d="M6.52104 2.48592C6.81494 2.40342 7.15655 2.55897 7.27428 2.84299C7.39256 3.12184 7.5082 3.40171 7.62385 3.68162C7.67625 3.80844 7.72866 3.93527 7.78131 4.06201C7.86553 4.25709 7.84619 4.49256 7.72846 4.67002C7.6691 4.77672 7.56505 4.84302 7.46402 4.9074C7.44951 4.91664 7.43504 4.92586 7.4208 4.93514C6.39385 5.60158 5.51514 6.49447 4.86373 7.53131C4.71248 7.79127 4.3653 7.90213 4.08815 7.79299C3.92435 7.72552 3.76072 7.65756 3.59711 7.58962C3.38584 7.50187 3.17388 7.41384 2.96237 7.32721C2.84592 7.28166 2.72647 7.23053 2.64225 7.13471C2.43944 6.93104 2.40592 6.58772 2.56233 6.34709C3.48787 4.79979 4.80143 3.48838 6.34744 2.56025C6.40201 2.52846 6.46002 2.50225 6.52104 2.48592Z" fill="black"/>
<path d="M17.9011 2.7144C17.6715 2.56218 17.4179 2.39405 17.1326 2.48888C16.9427 2.54087 16.7867 2.68654 16.7124 2.86787C16.5456 3.27306 16.3776 3.67783 16.2092 4.08216C16.0962 4.3606 16.2071 4.71165 16.4687 4.86376C17.5434 5.53751 18.4612 6.4579 19.1362 7.53126C19.2931 7.79724 19.6557 7.90681 19.9367 7.78177C20.0796 7.72224 20.2227 7.66337 20.3659 7.60449C20.6392 7.49211 20.9124 7.37972 21.1837 7.26271C21.5038 7.11275 21.6331 6.67962 21.4553 6.37583C20.5929 4.92478 19.3902 3.67826 17.9731 2.76173C17.9494 2.74635 17.9254 2.73046 17.9011 2.7144Z" fill="black"/>
<path d="M12.7782 9.19537C12.5534 9.18721 12.3463 9.29721 12.1551 9.40334L12.1522 9.40503C11.7196 9.65841 11.287 9.91179 10.854 10.1647C10.8507 10.3806 10.8488 10.5966 10.847 10.8126C10.8453 11.0122 10.8436 11.2122 10.8407 11.4117L10.9768 11.3328C11.3603 11.1104 11.7438 10.888 12.1237 10.6602C12.5083 10.3942 12.8894 10.0083 12.8963 9.50948C12.8958 9.49502 12.8957 9.47922 12.8956 9.46264C12.8952 9.35799 12.8946 9.22207 12.7782 9.19537Z" fill="black"/>
<path d="M12.8039 11.9415C12.898 11.9144 13.0054 11.886 13.0983 11.9333C13.2087 12.0867 13.1773 12.2947 13.1481 12.4696C13.0536 12.9173 12.6888 13.2434 12.327 13.4905C11.9257 13.7267 11.5216 13.9582 11.1177 14.1897L10.8127 14.3645C10.8148 14.1982 10.8158 14.0319 10.8169 13.8656C10.8185 13.5885 10.8202 13.3113 10.8269 13.0342C11.0693 12.8926 11.3122 12.7521 11.5552 12.6115C11.7864 12.4778 12.0179 12.3439 12.2488 12.2092C12.4271 12.1069 12.6075 12.0046 12.8039 11.9415Z" fill="black"/>
<path fill-rule="evenodd" clip-rule="evenodd" d="M11.3327 5.32897C12.562 5.20651 13.8249 5.4278 14.9339 5.97393C16.0434 6.51448 16.9977 7.36784 17.659 8.40983C18.2674 9.36588 18.6292 10.4775 18.692 11.6093C18.7736 12.9512 18.4367 14.3146 17.7381 15.4631C16.8297 16.9731 15.3069 18.0984 13.5924 18.5118C12.3463 18.8173 11.0117 18.7567 9.80044 18.3317C8.56895 17.9059 7.47067 17.1076 6.67962 16.0729C5.95602 15.1319 5.48809 13.9953 5.34673 12.8163C5.18817 11.5405 5.40602 10.2192 5.97407 9.06553C6.62891 7.72018 7.7461 6.60514 9.09618 5.95975C9.79657 5.61858 10.5584 5.4076 11.3327 5.32897ZM13.2427 7.28491C12.761 7.40393 12.3244 7.65057 11.8999 7.89979L11.2522 8.2757C10.6883 8.60308 10.1244 8.93047 9.55981 9.25674C9.28954 9.41057 9.11637 9.71393 9.11551 10.0246C9.10047 12.1155 9.08372 14.2063 9.0661 16.2972C9.06309 16.436 9.08544 16.5941 9.20274 16.6852C9.3252 16.7986 9.5177 16.7819 9.65176 16.6981C10.0318 16.4805 10.4103 16.2606 10.7889 16.0407C11.0721 15.8762 11.3553 15.7117 11.6391 15.5482C11.767 15.4726 11.8961 15.3985 12.0253 15.3244C12.4912 15.0571 12.9584 14.7891 13.3724 14.4444C14.0496 13.8931 14.6387 13.1712 14.842 12.3054C14.9485 11.8443 14.9868 11.3455 14.8261 10.8926C14.71 10.5634 14.4063 10.3138 14.0582 10.2734C14.4587 9.67139 14.7191 8.94823 14.6555 8.21776C14.6271 7.89721 14.4969 7.5569 14.2103 7.38331C13.9237 7.20112 13.5619 7.20627 13.2427 7.28491Z" fill="black"/>
<path d="M2.3548 8.93417C2.17949 8.85296 1.98098 8.78593 1.78848 8.84652C1.56461 8.90324 1.38715 9.08929 1.33215 9.3123C1.1259 10.1128 1.02449 10.9378 1 11.7632V12.2325C1.0232 13.0686 1.12934 13.9039 1.33945 14.7143C1.42883 15.0581 1.8366 15.2678 2.16875 15.1393C2.59371 14.9678 3.01695 14.7912 3.43977 14.6142C3.73109 14.4857 3.8759 14.1269 3.77922 13.8279C3.50465 12.6071 3.51281 11.3258 3.79211 10.1068C3.86215 9.82234 3.70703 9.50523 3.43934 9.38663C3.23769 9.29942 3.03455 9.21586 2.83144 9.1323C2.67241 9.06688 2.51308 9.00133 2.3548 8.93417Z" fill="black"/>
<path d="M21.8339 8.85983C22.1639 8.73264 22.5716 8.9419 22.6602 9.28436C22.8729 10.1051 22.9803 10.9511 23 11.798V12.2294C22.976 13.0669 22.872 13.9039 22.6593 14.7152C22.5695 15.0585 22.1634 15.2665 21.8322 15.1393C21.6105 15.0519 21.3907 14.9601 21.1708 14.8684C20.9982 14.7963 20.8253 14.7241 20.6518 14.6542C20.455 14.5846 20.2836 14.4333 20.2225 14.2296C20.1646 14.068 20.2021 13.9032 20.2391 13.7408C20.2506 13.6899 20.2622 13.6392 20.2707 13.589C20.4941 12.4396 20.4683 11.2446 20.2075 10.1033C20.1366 9.81202 20.3046 9.48503 20.5839 9.37503C20.7021 9.32612 20.8202 9.27693 20.9383 9.22774C21.2362 9.10364 21.5342 8.97953 21.8339 8.85983Z" fill="black"/>
<path d="M4.86548 16.4709C4.71896 16.2212 4.3881 16.1039 4.11568 16.1993C3.78859 16.3296 3.46355 16.4656 3.13878 16.6014C3.04375 16.6412 2.94872 16.6809 2.85369 16.7205C2.50951 16.8533 2.35912 17.3088 2.54474 17.6242C3.43935 19.1289 4.69963 20.4128 6.18462 21.3392C6.20344 21.3507 6.22227 21.3624 6.24119 21.3742C6.35966 21.4482 6.48161 21.5244 6.62462 21.5322C6.89318 21.5644 7.17119 21.4054 7.27689 21.1562C7.44962 20.7424 7.6215 20.3278 7.79251 19.9131C7.90337 19.6355 7.79123 19.2875 7.53127 19.1358C6.45791 18.462 5.53966 17.5442 4.86548 16.4709Z" fill="black"/>
<path d="M19.4985 16.192C19.6445 16.1482 19.8044 16.1589 19.9445 16.2191C20.1238 16.2949 20.3038 16.3692 20.4839 16.4435C20.7181 16.5401 20.9523 16.6368 21.185 16.7369C21.5038 16.8868 21.6357 17.3195 21.4552 17.622C20.5237 19.1934 19.1912 20.5237 17.6216 21.457C17.2834 21.6542 16.8065 21.4639 16.6952 21.0887C16.6219 20.9098 16.5478 20.7313 16.4736 20.5529C16.3847 20.3387 16.2958 20.1246 16.2083 19.9097C16.0983 19.6338 16.2118 19.2879 16.4687 19.1358C17.5421 18.4621 18.4608 17.5443 19.1349 16.4705C19.2153 16.3368 19.3476 16.2341 19.4985 16.192Z" fill="black"/>
<path d="M10.3036 20.2482C10.1013 20.2013 9.88034 20.15 9.68692 20.2561C9.49657 20.3398 9.38571 20.5268 9.31911 20.7154C9.25157 20.8829 9.18212 21.0496 9.11267 21.2163C9.02748 21.4208 8.9423 21.6253 8.86063 21.8313C8.73302 22.1621 8.94013 22.5678 9.28302 22.6589C10.0951 22.8716 10.9334 22.976 11.7718 23H12.2002C13.0393 22.9811 13.8768 22.8737 14.6902 22.6675C14.9652 22.6039 15.1757 22.3383 15.1753 22.0564C15.1833 21.927 15.1323 21.8052 15.0833 21.688L15.0791 21.6779C15.0048 21.5026 14.9324 21.3267 14.8601 21.1509C14.7788 20.9533 14.6976 20.7558 14.6137 20.5594C14.4956 20.2934 14.178 20.1383 13.8957 20.2071C12.727 20.4752 11.5011 20.4945 10.3263 20.2535C10.3188 20.2517 10.3112 20.25 10.3036 20.2482Z" fill="black"/>
</svg>
