<svg width="24" height="24" viewBox="0 0 24 24" fill="none" xmlns="http://www.w3.org/2000/svg">
<path fill-rule="evenodd" clip-rule="evenodd" d="M13 15.917C14.7947 15.6159 16.3193 14.5181 17.1975 12.9996C19.0466 12.9962 20.04 12.9594 20.816 12.564C21.5686 12.1805 22.1805 11.5686 22.564 10.816C23 9.96032 23 8.84021 23 6.6C23 6.03995 23 5.75992 22.891 5.54601C22.7951 5.35785 22.6422 5.20487 22.454 5.10899C22.2401 5 21.9601 5 21.4 5H17.9996C17.9991 4.94529 17.9981 4.90539 17.9957 4.86919C17.9301 3.86768 17.1323 3.06992 16.1308 3.00428C16.0655 3 15.9881 3 15.8333 3H8.16667C8.01191 3 7.93453 3 7.86919 3.00428C6.86768 3.06992 6.06992 3.86768 6.00428 4.86919C6.00191 4.90539 6.00085 4.94529 6.00038 5H2.6C2.03995 5 1.75992 5 1.54601 5.10899C1.35785 5.20487 1.20487 5.35785 1.10899 5.54601C1 5.75992 1 6.03995 1 6.6C1 8.84021 1 9.96032 1.43597 10.816C1.81947 11.5686 2.43139 12.1805 3.18404 12.564C3.95999 12.9594 4.95343 12.9962 6.80249 12.9996C7.68073 14.5181 9.20528 15.6159 11 15.917L11 20H7C6.44772 20 6 20.4477 6 21C6 21.5523 6.44772 22 7 22H17C17.5523 22 18 21.5523 18 21C18 20.4477 17.5523 20 17 20H13L13 15.917ZM6 6.5L2.50003 6.50003L2.5 6.6C2.5 7.74486 2.50117 8.51329 2.54952 9.10504C2.59643 9.67929 2.6802 9.95385 2.77248 10.135C3.01217 10.6054 3.39462 10.9878 3.86502 11.2275C4.04615 11.3198 4.32071 11.4036 4.89496 11.4505C5.24867 11.4794 5.6655 11.4914 6.18811 11.4964C6.0653 11.0181 6 10.5167 6 10V6.5ZM18 6.5L21.5 6.50003L21.5 6.6C21.5 7.74486 21.4988 8.51329 21.4505 9.10504C21.4036 9.67929 21.3198 9.95385 21.2275 10.135C20.9878 10.6054 20.6054 10.9878 20.135 11.2275C19.9539 11.3198 19.6793 11.4036 19.105 11.4505C18.7513 11.4794 18.3345 11.4914 17.8119 11.4964C17.9347 11.0181 18 10.5167 18 10V6.5Z" fill="#EBEBEB"/>
</svg>
