<svg width="140" height="24" viewBox="0 0 140 24" fill="none" xmlns="http://www.w3.org/2000/svg">
<path d="M11.6591 23.797C10.9851 23.797 10.3211 23.6303 9.72637 23.3263L2.39212 19.5213C1.01447 18.8055 0.162109 17.4129 0.162109 15.8733V8.78309C0.162109 7.24346 1.01447 5.85093 2.39212 5.13506L9.72637 1.33009C10.3211 1.02609 10.9851 0.859375 11.6591 0.859375C12.333 0.859375 12.9971 1.02609 13.5917 1.33009L20.926 5.13506C22.3037 5.85093 23.156 7.24346 23.156 8.78309V15.8733C23.156 17.4129 22.3037 18.8055 20.926 19.5213L13.5917 23.3263C12.9971 23.6401 12.333 23.797 11.6591 23.797Z" fill="#F5E76E"/>
<path d="M10.0932 2.0265C11.0744 1.51656 12.2439 1.51656 13.2251 2.0265L20.5594 5.83148C21.6694 6.41005 22.3632 7.54762 22.3632 8.78326V15.8734C22.3632 17.1091 21.6694 18.2466 20.5594 18.8252L13.2251 22.6302C12.2439 23.1401 11.0744 23.1401 10.0932 22.6302L2.75891 18.8252C1.64886 18.2466 0.955078 17.1091 0.955078 15.8734V8.78326C0.955078 7.54762 1.64886 6.41005 2.75891 5.83148L10.0932 2.0265Z" fill="#1A1A1A"/>
<path d="M7.77478 6.24305L12.2943 8.57705C12.6412 8.75356 13.2259 8.6457 13.325 8.37111L14.554 5.13492C14.5738 5.07609 14.5738 5.01725 14.5441 4.96819C14.5144 4.90936 14.4648 4.87015 14.3855 4.8309C14.3162 4.79169 14.217 4.76225 14.1179 4.75248C14.0188 4.74266 13.9098 4.74266 13.8107 4.75248L8.0622 5.65466C7.95316 5.67429 7.85404 5.70369 7.77478 5.74293C7.69548 5.78215 7.636 5.84098 7.60629 5.89985C7.57655 5.95869 7.57655 6.01752 7.60629 6.07636C7.636 6.145 7.69548 6.19403 7.77478 6.24305Z" fill="#F5E76E"/>
<path d="M18.6864 13.8726C18.9639 13.8138 19.1918 13.8628 19.3504 14.0197C19.509 14.1668 19.5883 14.412 19.5883 14.765C19.5883 15.2553 19.4099 15.7359 19.0729 16.187C18.7359 16.6381 18.2404 17.0401 17.5962 17.3932L15.2967 18.6681C15.158 18.7465 15.0391 18.6778 15.0391 18.5209L15.0787 13.4902C15.0787 13.3234 15.1976 13.1273 15.3364 13.0488L17.497 11.8524C18.1016 11.519 18.5575 11.3915 18.8846 11.4798C19.2117 11.5583 19.3703 11.823 19.3603 12.2741C19.3603 12.5487 19.3008 12.8233 19.1819 13.0979C19.063 13.3823 18.9044 13.6373 18.6864 13.8726ZM16.2978 13.5C16.2482 13.5294 16.2086 13.5882 16.2086 13.647L16.1987 14.7748C16.1987 14.8337 16.2383 14.8533 16.2878 14.8239L17.3384 14.2452C17.6259 14.0884 17.834 13.9118 17.9827 13.7157C18.1314 13.5196 18.2007 13.3136 18.2106 13.0979C18.2106 12.8821 18.1412 12.7547 17.9926 12.7252C17.8439 12.6958 17.6358 12.7547 17.3484 12.9115L16.2978 13.5ZM17.5169 16.4615C17.8142 16.2948 18.0421 16.1085 18.2007 15.9124C18.3593 15.7163 18.4386 15.5005 18.4386 15.2651C18.4386 14.8042 18.1412 14.7356 17.5267 15.069L16.278 15.7653C16.2284 15.7947 16.1887 15.8536 16.1887 15.9124L16.1788 17.1088C16.1788 17.1676 16.2185 17.1873 16.268 17.1578L17.5169 16.4615Z" fill="#F5E76E"/>
<path d="M4.63235 13.8726C4.35486 13.8138 4.12689 13.8628 3.96833 14.0197C3.80973 14.1668 3.73047 14.412 3.73047 14.765C3.73047 15.2553 3.90885 15.7359 4.24582 16.187C4.58283 16.6381 5.07837 17.0401 5.72261 17.3932L8.02199 18.6681C8.16074 18.7465 8.27967 18.6778 8.27967 18.5209L8.24004 13.4902C8.24004 13.3234 8.12111 13.1273 7.98236 13.0488L5.82173 11.8524C5.21712 11.519 4.76121 11.3915 4.43416 11.4798C4.10708 11.5583 3.94851 11.823 3.9584 12.2741C3.9584 12.5487 4.01789 12.8233 4.13682 13.0979C4.25575 13.3823 4.41431 13.6373 4.63235 13.8726ZM7.02096 13.5C7.07051 13.5294 7.11018 13.5882 7.11018 13.647L7.12007 14.7748C7.12007 14.8337 7.08044 14.8533 7.03088 14.8239L5.98029 14.2452C5.69287 14.0884 5.48472 13.9118 5.33608 13.7157C5.18741 13.5196 5.118 13.3136 5.10811 13.0979C5.10811 12.8821 5.17748 12.7547 5.32616 12.7252C5.47483 12.6958 5.68295 12.7547 5.97036 12.9115L7.02096 13.5ZM5.80188 16.4615C5.50457 16.2948 5.2766 16.1085 5.118 15.9124C4.95944 15.7163 4.88014 15.5005 4.88014 15.2651C4.88014 14.8042 5.17748 14.7356 5.79199 15.069L7.04077 15.7653C7.09033 15.7947 7.13 15.8536 7.13 15.9124L7.13989 17.1088C7.13989 17.1676 7.10026 17.1873 7.0507 17.1578L5.80188 16.4615Z" fill="#F5E76E"/>
<path d="M130.453 1.41556V5.45265C130.453 5.76048 130.817 5.94754 131.098 5.77996L134.509 3.76142C134.569 3.72631 134.618 3.67767 134.652 3.62011C134.686 3.56254 134.704 3.49787 134.704 3.43215C134.704 3.36644 134.686 3.30178 134.652 3.24421C134.618 3.18664 134.569 3.13802 134.509 3.10288L131.098 1.08823C131.035 1.05021 130.962 1.02877 130.887 1.02615C130.811 1.02354 130.737 1.03985 130.671 1.07337C130.605 1.10689 130.55 1.15637 130.511 1.2166C130.473 1.27682 130.453 1.34556 130.453 1.41556Z" fill="#F5E76E"/>
<path d="M126.536 18.693C126.451 18.693 126.383 18.6234 126.383 18.5377V6.49221C126.383 6.40644 126.451 6.33691 126.536 6.33691H129.451C129.536 6.33691 129.605 6.40644 129.605 6.49221V14.0373C129.605 14.0837 129.642 14.1212 129.687 14.1212C129.713 14.1212 129.738 14.1089 129.753 14.088L135.506 6.39836C135.535 6.35964 135.581 6.33691 135.628 6.33691H138.621C138.706 6.33691 138.774 6.40644 138.774 6.49221V18.5377C138.774 18.6234 138.706 18.693 138.621 18.693H135.706C135.621 18.693 135.552 18.6234 135.552 18.5377V10.9926C135.552 10.9462 135.515 10.9087 135.47 10.9087C135.444 10.9087 135.419 10.9209 135.404 10.9419L129.651 18.6315C129.622 18.6702 129.576 18.693 129.529 18.693H126.536Z" fill="#F5E76E"/>
<path d="M117.963 19.1873C113.626 19.1873 111.768 17.3339 111.768 14.8627C111.768 12.3915 113.626 10.5381 117.963 10.5381C119.191 10.5381 120.226 10.6862 120.631 10.7531C120.726 10.7688 120.814 10.6942 120.807 10.5969C120.729 9.34663 119.853 8.56109 117.963 8.56109C116.334 8.56109 115.039 9.14553 114.629 9.35359C114.553 9.3922 114.46 9.36491 114.418 9.28984L113.32 7.31895C113.282 7.25178 113.299 7.16821 113.362 7.12504C113.782 6.83761 115.419 5.84277 117.963 5.84277C121.928 5.84277 124.035 7.9433 124.035 11.2794V18.2068C124.035 18.2754 123.992 18.3353 123.927 18.3537C123.379 18.5088 120.817 19.1873 117.963 19.1873ZM117.963 16.469C119.196 16.469 120.344 16.2141 120.7 16.1271C120.767 16.1106 120.813 16.0494 120.813 15.9792V13.6335C120.813 13.5583 120.761 13.4942 120.687 13.4823C120.317 13.4224 119.182 13.2564 117.963 13.2564C115.857 13.2564 115.113 13.9978 115.113 14.8627C115.113 15.7276 115.857 16.469 117.963 16.469Z" fill="#F5E76E"/>
<path d="M99.0243 18.693C98.9397 18.693 98.8711 18.6234 98.8711 18.5377V6.49221C98.8711 6.40644 98.9397 6.33691 99.0243 6.33691H101.94C102.024 6.33691 102.093 6.40644 102.093 6.49221V11.0005C102.093 11.0862 102.161 11.1558 102.246 11.1558H104.323C105.934 11.1558 106.802 10.2908 107.049 9.30236L107.764 6.45395C107.781 6.38509 107.842 6.33691 107.912 6.33691H110.817C110.917 6.33691 110.99 6.43228 110.966 6.53043L110.271 9.30236C109.642 11.8966 108.217 12.6942 107.87 12.8532C107.824 12.8741 107.793 12.9197 107.793 12.9704C107.793 12.9956 107.801 13.0201 107.815 13.0405L111.704 18.4462C111.778 18.5488 111.706 18.693 111.58 18.693H108.367C108.318 18.693 108.271 18.6686 108.243 18.6277L104.865 13.8158C104.836 13.7749 104.789 13.7505 104.74 13.7505H102.246C102.161 13.7505 102.093 13.8201 102.093 13.9058V18.5377C102.093 18.6234 102.024 18.693 101.94 18.693H99.0243Z" fill="#F5E76E"/>
<path d="M91.4253 19.1873C87.0884 19.1873 84.2383 16.3454 84.2383 12.5151C84.2383 8.56109 86.9645 5.84277 90.8057 5.84277C94.6244 5.84277 97.3412 8.5294 97.3729 12.4458C97.3732 12.4895 97.3548 12.5318 97.3231 12.5613L95.806 13.9574C95.7778 13.9834 95.7413 13.9978 95.703 13.9978H87.9068C87.7992 13.9978 87.7254 14.1075 87.7689 14.2072C88.3227 15.4694 89.4409 16.469 91.6733 16.469C93.2582 16.469 94.3677 15.8373 94.7494 15.5838C94.8278 15.5316 94.9364 15.5553 94.9828 15.6382L96.0693 17.5886C96.1066 17.6553 96.0909 17.7383 96.0289 17.7822C95.5992 18.0874 93.8798 19.1873 91.4253 19.1873ZM87.7181 11.2221C87.6975 11.3161 87.77 11.403 87.865 11.403H93.7245C93.8185 11.403 93.8906 11.3177 93.8715 11.2243C93.5626 9.706 92.3562 8.56109 90.8057 8.56109C89.256 8.56109 88.0503 9.70487 87.7181 11.2221Z" fill="#F5E76E"/>
<path d="M69.9798 19.1877C69.3975 19.1877 68.7393 19.0361 68.4813 18.9704C68.4148 18.9534 68.3691 18.8925 68.3691 18.8229V16.5011C68.3691 16.4154 68.4377 16.3458 68.5224 16.3458H68.6171C70.3518 16.3458 71.3676 15.3573 71.5909 13.5039L72.4417 6.47381C72.4511 6.39592 72.5166 6.3374 72.5939 6.3374H82.466C82.5506 6.3374 82.6192 6.40693 82.6192 6.4927V18.5382C82.6192 18.624 82.5506 18.6935 82.466 18.6935H79.5507C79.4661 18.6935 79.3974 18.624 79.3974 18.5382V9.08749C79.3974 9.00172 79.3288 8.93219 79.2442 8.93219H75.4454C75.3674 8.93219 75.3016 8.9918 75.2932 9.07051L74.8126 13.5039C74.416 17.3343 72.582 19.1877 69.9798 19.1877Z" fill="#F5E76E"/>
<path d="M62.5515 18.9402C59.9444 18.9402 57.5275 18.4653 56.9714 18.3482C56.901 18.3334 56.8516 18.2707 56.8516 18.1979V6.82936C56.8516 6.75789 56.8993 6.69588 56.9682 6.68003C57.4882 6.56 59.6777 6.08984 62.0559 6.08984C66.3928 6.08984 68.0039 7.69611 68.0039 9.79664C68.0039 11.4731 66.179 12.0375 65.8304 12.13C65.7969 12.1389 65.7733 12.1693 65.7733 12.2042C65.7733 12.2409 65.798 12.2719 65.8335 12.2788C66.2643 12.3623 68.871 12.9562 68.871 15.1097C68.871 17.2103 67.1363 18.9402 62.5515 18.9402ZM62.5515 16.2218C64.9061 16.2218 65.5256 15.604 65.5256 14.9862C65.5256 14.3684 64.9061 13.7506 62.8242 13.7506H60.2265C60.1419 13.7506 60.0733 13.8201 60.0733 13.9059V15.847C60.0733 15.9212 60.1252 15.9848 60.1973 15.9977C60.5407 16.0591 61.5461 16.2218 62.5515 16.2218ZM60.0733 10.877C60.0733 10.9627 60.1419 11.0323 60.2265 11.0323H62.3039C64.1626 11.0323 64.6581 10.538 64.6581 9.92021C64.6581 9.30242 64.1626 8.80816 62.0559 8.80816C61.2678 8.80816 60.4801 8.96434 60.19 9.02836C60.121 9.04361 60.0733 9.10555 60.0733 9.17702V10.877Z" fill="#F5E76E"/>
<path d="M48.3066 19.1873C44.3413 19.1873 41.3672 16.2219 41.3672 12.5151C41.3672 8.80822 44.3413 5.84277 48.3066 5.84277C52.2715 5.84277 55.2456 8.80822 55.2456 12.5151C55.2456 16.2219 52.2715 19.1873 48.3066 19.1873ZM48.3066 16.469C50.2889 16.469 51.8999 14.8627 51.8999 12.5151C51.8999 10.1674 50.2889 8.56109 48.3066 8.56109C46.324 8.56109 44.7129 10.1674 44.7129 12.5151C44.7129 14.8627 46.324 16.469 48.3066 16.469Z" fill="#F5E76E"/>
<path d="M34.5574 18.9402C31.9502 18.9402 29.5335 18.4653 28.9771 18.3482C28.9069 18.3334 28.8574 18.2707 28.8574 18.1979V6.82936C28.8574 6.75789 28.9051 6.69588 28.9739 6.68003C29.494 6.56 31.6836 6.08984 34.0618 6.08984C38.3987 6.08984 40.0094 7.69611 40.0094 9.79664C40.0094 11.4731 38.1849 12.0375 37.8363 12.13C37.8029 12.1389 37.7792 12.1693 37.7792 12.2042C37.7792 12.2409 37.8036 12.2719 37.8391 12.2788C38.2702 12.3623 40.8769 12.9562 40.8769 15.1097C40.8769 17.2103 39.1423 18.9402 34.5574 18.9402ZM34.5574 16.2218C36.9117 16.2218 37.5312 15.604 37.5312 14.9862C37.5312 14.3684 36.9117 13.7506 34.8301 13.7506H32.2324C32.1478 13.7506 32.0792 13.8201 32.0792 13.9059V15.847C32.0792 15.9212 32.1309 15.9848 32.203 15.9977C32.5465 16.0591 33.5519 16.2218 34.5574 16.2218ZM32.0792 10.877C32.0792 10.9627 32.1478 11.0323 32.2324 11.0323H34.3096C36.1681 11.0323 36.6641 10.538 36.6641 9.92021C36.6641 9.30242 36.1681 8.80816 34.0618 8.80816C33.2738 8.80816 32.4858 8.96434 32.1957 9.02836C32.1268 9.04361 32.0792 9.10555 32.0792 9.17702V10.877Z" fill="#F5E76E"/>
</svg>
