<svg width="25" height="24" viewBox="0 0 25 24" fill="none" xmlns="http://www.w3.org/2000/svg">
<path d="M4.375 5.33333C4.375 4.59583 4.93359 4 5.625 4H6.25C6.94141 4 7.5 4.59583 7.5 5.33333V18.6667C7.5 19.4042 6.94141 20 6.25 20H5.625C4.93359 20 4.375 19.4042 4.375 18.6667V17.3333H2.5C1.80859 17.3333 1.25 16.7375 1.25 16V13.3333C0.558594 13.3333 0 12.7375 0 12C0 11.2625 0.558594 10.6667 1.25 10.6667V8C1.25 7.2625 1.80859 6.66667 2.5 6.66667H4.375V5.33333ZM20.625 5.33333V6.66667H22.5C23.1914 6.66667 23.75 7.2625 23.75 8V10.6667C24.4414 10.6667 25 11.2625 25 12C25 12.7375 24.4414 13.3333 23.75 13.3333V16C23.75 16.7375 23.1914 17.3333 22.5 17.3333H20.625V18.6667C20.625 19.4042 20.0664 20 19.375 20H18.75C18.0586 20 17.5 19.4042 17.5 18.6667V5.33333C17.5 4.59583 18.0586 4 18.75 4H19.375C20.0664 4 20.625 4.59583 20.625 5.33333ZM16.25 10.6667V13.3333H8.75V10.6667H16.25Z" fill="#EBEBEB"/>
</svg>
