<svg width="24" height="24" viewBox="0 0 24 24" fill="none" xmlns="http://www.w3.org/2000/svg">
<g opacity="0.7">
<path d="M3 22.5409C4.33333 20.5583 6.89164 16.1904 8.32292 12.6125C8.68229 11.7142 9.00313 12.8087 9.53646 12.8087C10.2031 12.8087 10.9469 10 11.5 10C12.0757 10 13.2222 13.0686 13.6667 14.6106C14.1111 14.17 14.875 13.5802 15 13.9497C15.2119 14.5763 17.6667 21.88 21 21.88C19.9576 23.7884 16.5 23.5 15 22.5C14.2013 21.9675 13 20.5 13.6667 18.5757C14.3514 16.5993 10.3333 18.5757 9.66667 18.5757C9 18.5757 11.6667 14.6106 10.3333 14.6106C9 14.6106 7 21.88 3 22.5409Z" fill="#1B1B1B"/>
<path d="M19.7994 7.69107C19.8858 7.82413 19.7903 8 19.6316 8H15.3C15.1343 8 15 7.86569 15 7.7V4H19.6316C19.7903 4 19.8858 4.17587 19.7994 4.30893L18.7012 6L19.7994 7.69107Z" fill="#1B1B1B"/>
<path d="M15.6727 3H12V7H16V3.32729C16 3.14653 15.8535 3 15.6727 3Z" fill="#1B1B1B"/>
<rect x="11" y="2" width="1" height="11" rx="0.5" fill="#1B1B1B"/>
</g>
</svg>
