<svg width="24" height="24" viewBox="0 0 24 24" fill="none" xmlns="http://www.w3.org/2000/svg">
<path d="M4.36518 4C4.36459 4 4.36393 4 4.36333 4C4.15526 4 3.95956 4.08204 3.81178 4.23114C3.66237 4.38188 3.58008 4.5826 3.58008 4.79628V16.7363C3.58008 17.1741 3.93363 17.5312 4.3683 17.5323C6.20073 17.5368 9.27078 17.9231 11.3887 20.1648V7.66925C11.3887 7.52083 11.3512 7.3814 11.2805 7.26602C9.54219 4.43455 6.20177 4.00435 4.36518 4Z" fill="white"/>
<path d="M20.4196 16.7364V4.79628C20.4196 4.5826 20.3373 4.38188 20.1879 4.23114C20.0401 4.08204 19.8443 4 19.6364 4C19.6358 4 19.6351 4 19.6345 4C17.798 4.00442 14.4576 4.43462 12.7192 7.26609C12.6485 7.38147 12.6111 7.5209 12.6111 7.66932V20.1648C14.729 17.9231 17.799 17.5368 19.6315 17.5323C20.0661 17.5312 20.4196 17.1741 20.4196 16.7364Z" fill="white"/>
<path d="M22.2125 6.75293H21.6417V16.7357C21.6417 17.8536 20.7412 18.7652 19.6343 18.7679C18.08 18.7717 15.5172 19.0791 13.7021 20.8166C16.8412 20.0392 20.1504 20.5446 22.0363 20.9793C22.2718 21.0335 22.5151 20.9775 22.7038 20.8254C22.8918 20.6737 22.9996 20.4469 22.9996 20.2034V7.54905C22.9997 7.11008 22.6465 6.75293 22.2125 6.75293Z" fill="white"/>
<path d="M2.35792 16.7357V6.75293H1.78711C1.35318 6.75293 1 7.11008 1 7.54905V20.2032C1 20.4467 1.10785 20.6734 1.29585 20.8252C1.48437 20.9772 1.72748 21.0334 1.96333 20.979C3.84924 20.5443 7.15848 20.039 10.2974 20.8164C8.48247 19.0789 5.91967 18.7716 4.36538 18.7679C3.2585 18.7652 2.35792 17.8536 2.35792 16.7357Z" fill="white"/>
</svg>
