<svg width="23" height="24" viewBox="0 0 23 24" fill="none" xmlns="http://www.w3.org/2000/svg">
<path d="M9.68875 0.451701C10.2187 0.174421 10.8104 0.0202626 11.4153 0.00186555C12.0202 -0.0165315 12.6211 0.101357 13.1687 0.345864L13.3871 0.451701L21.1784 4.81066L21.2888 4.8794L21.3946 4.96342L21.5177 5.04525C21.9173 5.3296 22.2523 5.68764 22.5025 6.09789C22.7527 6.50814 22.9129 6.96212 22.9735 7.43259L22.9943 7.65299L23 7.87558V15.8232C23 17.0299 22.3445 18.1461 21.3279 18.7615L21.1324 18.8706L13.3089 23.5646C12.2532 24.1145 10.9871 24.1483 9.85435 23.6388L9.62895 23.5297L1.9297 18.9066C1.3817 18.6224 0.918243 18.2114 0.58231 17.7119C0.246377 17.2123 0.0488499 16.6403 0.00804996 16.049L0 15.8232V7.87449C0 6.66772 0.6555 5.55262 1.6974 4.92305L9.68875 0.451701ZM11.5 10.911H10.35L10.2154 10.9187C9.93594 10.9502 9.67834 11.0779 9.49142 11.2776C9.30451 11.4773 9.20128 11.7351 9.20128 12.0021C9.20128 12.2692 9.30451 12.527 9.49142 12.7267C9.67834 12.9263 9.93594 13.0541 10.2154 13.0856L10.35 13.0932V16.3666L10.3581 16.4942C10.3883 16.7378 10.5042 16.9645 10.687 17.138C10.8697 17.3114 11.1088 17.4213 11.3655 17.45L11.5 17.4577H12.65L12.7845 17.45C13.0412 17.4213 13.2803 17.3114 13.463 17.138C13.6458 16.9645 13.7617 16.7378 13.7919 16.4942L13.8 16.3666L13.7919 16.2389C13.7645 16.0163 13.6654 15.8071 13.5082 15.6398C13.351 15.4725 13.1433 15.3552 12.9133 15.3038L12.7845 15.282L12.65 15.2754V12.0021L12.6419 11.8745C12.6117 11.6309 12.4958 11.4041 12.313 11.2307C12.1303 11.0573 11.8912 10.9474 11.6345 10.9187L11.5 10.911ZM11.5115 7.63772L11.3655 7.64535C11.0859 7.6769 10.8283 7.80461 10.6414 8.00429C10.4545 8.20397 10.3513 8.46176 10.3513 8.72882C10.3513 8.99588 10.4545 9.25367 10.6414 9.45335C10.8283 9.65304 11.0859 9.78074 11.3655 9.81229L11.5 9.81993L11.646 9.81229C11.9256 9.78074 12.1832 9.65304 12.3701 9.45335C12.557 9.25367 12.6602 8.99588 12.6602 8.72882C12.6602 8.46176 12.557 8.20397 12.3701 8.00429C12.1832 7.80461 11.9256 7.6769 11.646 7.64535L11.5115 7.63772Z" fill="#F5E76E"/>
</svg>
