<svg width="25" height="24" viewBox="0 0 25 24" fill="none" xmlns="http://www.w3.org/2000/svg">
<path d="M21.0091 9.41034L13.5085 2.40299C13.233 2.14375 12.873 1.99997 12.4994 2C12.1259 2.00003 11.7659 2.14385 11.4904 2.40313L3.99109 9.41029C3.83659 9.55487 3.71312 9.73098 3.62858 9.92737C3.54404 10.1238 3.50028 10.3361 3.5001 10.5508V19.4233C3.4958 19.8106 3.62953 20.1863 3.8761 20.4793C4.01656 20.6434 4.18954 20.7747 4.38342 20.8645C4.5773 20.9543 4.78762 21.0004 5.00028 20.9999H9.49677C9.69568 20.9999 9.88645 20.9187 10.0271 20.7741C10.1677 20.6296 10.2468 20.4336 10.2468 20.2292V15.6042C10.2468 15.3997 10.3258 15.2037 10.4664 15.0592C10.6071 14.9146 10.7979 14.8334 10.9968 14.8334H13.9967C14.1957 14.8334 14.3864 14.9146 14.5271 15.0592C14.6677 15.2037 14.7467 15.3997 14.7467 15.6042V20.2292C14.7467 20.4336 14.8258 20.6296 14.9664 20.7741C15.1071 20.9187 15.2978 20.9999 15.4967 20.9999H20.0021C20.2485 21.0032 20.4917 20.9416 20.7084 20.8211C20.9476 20.6884 21.1475 20.4917 21.2868 20.2518C21.4262 20.0119 21.4998 19.7378 21.5 19.4584V10.5509C21.4998 10.3362 21.456 10.1238 21.3715 9.92744C21.287 9.73106 21.1636 9.55495 21.0091 9.41034Z" fill="white"/>
</svg>
