<svg width="24" height="24" viewBox="0 0 24 24" fill="none" xmlns="http://www.w3.org/2000/svg">
<path fill-rule="evenodd" clip-rule="evenodd" d="M11.9153 0.00186555C11.3104 0.0202626 10.7187 0.174421 10.1887 0.451701L2.1974 4.92305C1.1555 5.55262 0.5 6.66772 0.5 7.87449L0.5 15.8232L0.50805 16.049C0.54885 16.6403 0.746377 17.2123 1.08231 17.7119C1.41824 18.2114 1.8817 18.6224 2.4297 18.9066L10.129 23.5297L10.3543 23.6388C11.4871 24.1483 12.7533 24.1145 13.8089 23.5646L21.6324 18.8706L21.8279 18.7615C22.8445 18.1461 23.5 17.0299 23.5 15.8232L23.5 7.87558L23.4942 7.65299L23.4736 7.43259C23.4129 6.96212 23.2527 6.50814 23.0025 6.09789C22.7523 5.68764 22.4173 5.3296 22.0176 5.04525L21.8946 4.96342L21.7888 4.8794L21.6784 4.81066L13.8871 0.451701L13.6687 0.345864C13.1211 0.101357 12.5202 -0.0165315 11.9153 0.00186555ZM11.5182 5.03742C11.6948 4.98758 11.8812 4.98754 12.0578 5.03723C12.4333 5.14285 12.8123 5.24082 13.1925 5.33911L13.1925 5.33913C14.8404 5.76514 16.7915 6.26953 18.4048 7.57203L19.1477 8.17185C19.4491 8.41515 19.5999 8.77528 19.6 9.13548L19.6 14.17C19.6 14.4679 19.3564 14.7094 19.0558 14.7094C18.7553 14.7094 18.5116 14.4679 18.5116 14.17L18.5116 10.6147L18.3934 10.7103C17.8482 11.1513 17.28 11.4961 16.6977 11.7773V15.1006C16.6977 15.9157 16.1932 16.6473 15.4271 16.9433L12.5248 18.0649C12.0587 18.245 11.5413 18.245 11.0752 18.0649L8.17289 16.9433C7.40676 16.6473 6.90233 15.9157 6.90233 15.1006L6.90233 11.7714C6.31612 11.4887 5.74409 11.142 5.19521 10.6989L4.45226 10.0991C3.84955 9.61251 3.84923 8.65859 4.45142 8.1715L5.20659 7.56067C6.80827 6.26512 8.68063 5.78054 10.3811 5.34044L10.3812 5.34043C10.7622 5.24181 11.142 5.14353 11.5182 5.03742ZM8.39865 12.1568C8.51852 11.8836 8.83912 11.7585 9.11473 11.8773C9.98608 12.2529 10.8879 12.5605 11.8121 12.7962C12.7335 12.5606 13.6323 12.2531 14.5006 11.8775C14.776 11.7584 15.0968 11.8832 15.217 12.1562C15.3372 12.4292 15.2113 12.7472 14.9359 12.8663C14.0116 13.2661 13.0547 13.5932 12.0738 13.8434C11.9024 13.8871 11.7226 13.8872 11.5512 13.8436C10.5676 13.5933 9.60782 13.2663 8.68063 12.8666C8.40503 12.7478 8.27878 12.43 8.39865 12.1568Z" fill="#5B5B5B"/>
</svg>
