<svg width="24" height="24" viewBox="0 0 24 24" fill="none" xmlns="http://www.w3.org/2000/svg">
<path d="M7.13407 1.09843C7.8335 0.917138 8.79833 0.922632 9.15772 1.67254C9.30977 2.54331 9.24894 3.4388 9.22683 4.31781C9.24894 5.6638 7.08431 5.83686 6.55352 4.77105C6.40147 3.90028 6.46229 3.00479 6.48441 2.12578C6.46505 1.68627 6.7498 1.29072 7.13407 1.09843Z" fill="white"/>
<path d="M15.43 1.09843C16.1267 0.917138 17.0915 0.922632 17.4509 1.67254C17.6002 2.54331 17.5421 3.4388 17.52 4.31781C17.5421 5.6638 15.3775 5.83686 14.8467 4.77105C14.6946 3.90028 14.7527 3.00479 14.7776 2.12578C14.7582 1.68627 15.043 1.29072 15.43 1.09843Z" fill="white"/>
<path d="M10.3658 3.22174C11.4578 3.22174 12.547 3.22174 13.639 3.22174C13.6583 4.12547 13.5671 5.18853 14.297 5.86976C15.2728 6.76526 17.0117 6.79273 17.9876 5.8835C18.6815 5.22973 18.5986 4.21612 18.7092 3.35359C18.8308 3.38381 19.0796 3.44973 19.2012 3.4827C21.1613 4.08152 22.198 6.22137 21.9686 8.16618C15.3226 8.16618 8.67941 8.16618 2.03623 8.16618C1.75701 6.01535 3.1144 3.72717 5.33156 3.30964C5.36197 4.18591 5.29562 5.21325 6.00334 5.86976C6.97922 6.76526 8.72088 6.79273 9.694 5.88075C10.4183 5.19402 10.352 4.13372 10.3658 3.22174Z" fill="white"/>
<path d="M2.05007 9.81439C8.68496 9.81439 15.3199 9.81439 21.9548 9.81439C21.952 12.847 21.9603 15.8796 21.952 18.9122C21.9852 21.0905 20.0306 23.0435 17.8328 22.9968C13.9431 22.9996 10.0534 23.0023 6.1637 22.9968C4.06818 23.0215 2.15512 21.2525 2.06389 19.1676C2.03072 16.0499 2.06113 12.9321 2.05007 9.81439ZM6.8963 12.413C6.03653 12.7453 5.95913 14.0749 6.73596 14.5391C7.40222 15.0198 8.47762 14.6599 8.63244 13.8359C8.978 12.8662 7.78649 11.9103 6.8963 12.413ZM11.5628 12.358C10.8772 12.586 10.5455 13.4925 10.9077 14.1106C11.3168 14.9429 12.6935 14.9841 13.0916 14.1078C13.6971 13.1766 12.5747 11.9185 11.5628 12.358ZM16.0193 12.4102C15.1595 12.7426 15.0793 14.0749 15.8589 14.5391C16.5224 15.0198 17.6006 14.6627 17.7554 13.8359C18.101 12.869 16.9095 11.9103 16.0193 12.4102ZM6.8963 16.5306C6.03653 16.863 5.95636 18.1952 6.73596 18.6594C7.39945 19.1402 8.47486 18.7831 8.63244 17.9562C8.978 16.9893 7.78649 16.0307 6.8963 16.5306ZM11.5628 16.4784C10.8772 16.7064 10.5455 17.6129 10.9077 18.2309C11.3168 19.0632 12.6935 19.1044 13.0916 18.2282C13.6971 17.297 12.5747 16.0389 11.5628 16.4784Z" fill="white"/>
</svg>
