<svg width="24" height="24" viewBox="0 0 24 24" fill="none" xmlns="http://www.w3.org/2000/svg">
<path d="M9 2C9 1.44772 9.44772 1 10 1C10.5523 1 11 1.44772 11 2V6C11 6.55228 10.5523 7 10 7C9.44772 7 9 6.55228 9 6V2Z" fill="white"/>
<path d="M13 2C13 1.44772 13.4477 1 14 1C14.5523 1 15 1.44772 15 2V6C15 6.55228 14.5523 7 14 7C13.4477 7 13 6.55228 13 6V2Z" fill="white"/>
<path d="M17 1.5C17 1.22386 17.2239 1 17.5 1C17.7761 1 18 1.22386 18 1.5V5.5C18 5.77614 17.7761 6 17.5 6C17.2239 6 17 5.77614 17 5.5V1.5Z" fill="white"/>
<path d="M6 1.5C6 1.22386 6.22386 1 6.5 1C6.77614 1 7 1.22386 7 1.5V5.5C7 5.77614 6.77614 6 6.5 6C6.22386 6 6 5.77614 6 5.5V1.5Z" fill="white"/>
<path d="M21 21C21.5523 21 22 21.4477 22 22C22 22.5523 21.5523 23 21 23H3C2.44772 23 2 22.5523 2 22C2 21.4477 2.44772 21 3 21H21Z" fill="white"/>
<path d="M6 4H18V6C18 7.10457 17.1046 8 16 8H8C6.89543 8 6 7.10457 6 6V4Z" fill="white"/>
<path fill-rule="evenodd" clip-rule="evenodd" d="M20 22L4 22L5.72147 11.6712C5.8822 10.7068 6.71658 10 7.69425 10H16.3057C17.2834 10 18.1178 10.7068 18.2785 11.6712L20 22ZM11 15C10.4477 15 10 15.4477 10 16V21H14V16C14 15.4477 13.5523 15 13 15H11Z" fill="white"/>
</svg>
