<svg width="24" height="24" viewBox="0 0 24 24" fill="none" xmlns="http://www.w3.org/2000/svg">
<path d="M8.38692 2.62033C8.81114 2.43846 9.30567 2.42252 9.73692 2.59033C11.4591 3.30096 13.179 4.01674 14.9021 4.72596C16.305 4.14658 17.7071 3.56486 19.1105 2.98549C19.613 2.77221 20.2121 2.80877 20.6846 3.08205C21.2405 3.38674 21.6052 4.00596 21.5977 4.64017C21.5972 8.84392 21.5977 13.0477 21.5977 17.2514C21.5911 17.5439 21.624 17.8425 21.5471 18.1289C21.4205 18.6656 21.024 19.1264 20.521 19.3472C18.975 19.9866 17.4291 20.6269 15.8832 21.2663C15.6586 21.3581 15.4365 21.4669 15.1936 21.5016C14.8585 21.5597 14.5093 21.5124 14.1961 21.3816C12.495 20.6813 10.7986 19.9706 9.09614 19.275C7.67255 19.8642 6.24895 20.4544 4.82442 21.0427C4.35755 21.2175 3.81895 21.1838 3.37692 20.9541C2.78864 20.6592 2.39302 20.018 2.40239 19.3594C2.40286 15.0938 2.40239 10.8286 2.40239 6.56299C2.40286 6.34642 2.38927 6.12705 2.4413 5.91471C2.55848 5.36111 2.95645 4.87783 3.47489 4.65283C5.11223 3.97549 6.74958 3.29814 8.38692 2.62033ZM15.9943 8.30955C15.4636 8.35502 14.9429 8.56267 14.5421 8.91564C14.0869 9.30705 13.7954 9.89346 13.7991 10.4977C13.7977 10.7461 13.9449 10.9847 14.1657 11.0977C14.5093 11.3002 15.0029 11.1924 15.2138 10.8488C15.353 10.6519 15.2715 10.3899 15.3854 10.1841C15.5372 9.87564 15.8827 9.69752 16.2197 9.69892C16.4565 9.69846 16.6941 9.6858 16.9299 9.71205C17.2918 9.7533 17.6321 10.0378 17.6827 10.4081C17.7319 10.7091 17.5913 11.0316 17.3293 11.191C17.0574 11.3597 16.7733 11.5083 16.5005 11.6756C16.1161 11.9072 15.8288 12.3056 15.7613 12.7528C15.7102 13.0186 15.7533 13.3303 15.9788 13.5075C16.321 13.822 16.9449 13.7395 17.169 13.3238C17.2608 13.1925 17.2285 13.0195 17.2904 12.8817C17.7488 12.5606 18.309 12.3675 18.6746 11.9245C19.1499 11.3944 19.3215 10.6186 19.1199 9.93658C18.9113 9.20299 18.2794 8.63392 17.5585 8.41783C17.0541 8.25096 16.5155 8.30767 15.9943 8.30955ZM6.20723 11.0433C5.8102 11.1567 5.51536 11.5411 5.50223 11.9527C5.47739 12.337 5.70145 12.7228 6.04786 12.8911C6.38348 13.0669 6.81942 13.0261 7.1152 12.7889C7.3688 12.5944 7.51645 12.271 7.49864 11.9517C7.48505 11.6203 7.29286 11.3011 7.00411 11.137C6.76739 10.9941 6.4702 10.9617 6.20723 11.0433ZM10.2347 11.0358C9.70833 11.168 9.36755 11.7722 9.54333 12.2897C9.68161 12.7824 10.2333 13.1044 10.7302 12.9731C11.2524 12.8602 11.6124 12.2874 11.4727 11.768C11.3574 11.2341 10.7597 10.8731 10.2347 11.0358ZM16.2347 14.0864C15.8602 14.1835 15.5583 14.5603 15.6099 14.9555C15.6427 15.3385 15.9872 15.6427 16.3585 15.6895C16.725 15.7481 17.1296 15.5719 17.3035 15.2367C17.4591 14.9569 17.4094 14.5861 17.1915 14.3531C16.9585 14.0878 16.5704 13.9885 16.2347 14.0864Z" fill="black"/>
</svg>
