<svg width="24" height="24" viewBox="0 0 24 24" fill="none" xmlns="http://www.w3.org/2000/svg">
<path d="M15.2347 11.7631L12.0001 8.1606L8.76549 11.7631L12.0001 14.8621L15.2347 11.7631Z" fill="white"/>
<path d="M7.66172 10.7056L10.9735 7.0172L9.66605 5.56108C8.95639 4.82801 4.34356 0.796156 1.71004 1.00806C1.5049 3.72841 5.40806 8.49334 6.11773 9.2264L7.66172 10.7056Z" fill="white"/>
<path d="M13.107 15.9225L16.2584 12.9033L18.742 15.6694L20.871 13.4702L21.9355 14.5698L19.6014 18.0232L23 21.5339L21.5807 23L18.182 19.4893L14.8388 21.9004L13.7744 20.8008L15.9033 18.6016L13.107 15.9225Z" fill="white"/>
<path d="M1 21.5339L1.70967 22.2669L22.29 1.00806C19.6564 0.796156 15.0436 4.82801 14.3339 5.56108L5.25799 15.6694L3.129 13.4702L2.0645 14.5698L4.39863 18.0232L1 21.5339Z" fill="white"/>
<path d="M2.41933 23L1.70967 22.2669L22.29 1.00806C22.4951 3.72841 18.5919 8.49334 17.8823 9.2264L8.09665 18.6016L10.2256 20.8008L9.16115 21.9004L5.81796 19.4893L2.41933 23Z" fill="white"/>
</svg>
